<svg version="1.1" id="Layer_1" xmlns="http://www.w3.org/2000/svg" xmlns:xlink="http://www.w3.org/1999/xlink" x="0px" y="0px"
	 width="100%" viewBox="0 0 570 570" enable-background="new 0 0 570 570" xml:space="preserve">
<path fill="#7D93D1" opacity="1.000000" stroke="none" 
	d="
M0.999998,399.000000 
	C1.000000,266.446289 1.000000,133.892609 1.000000,1.000000 
	C39.353561,1.000000 77.708122,1.000000 116.531395,1.443122 
	C118.002167,11.270762 118.962746,20.659941 120.016335,30.038670 
	C121.476768,43.039089 122.994148,56.033173 124.511177,69.027168 
	C125.989868,81.692780 127.516495,94.352798 128.989624,107.019058 
	C130.558182,120.505646 132.094635,133.995972 133.634048,147.485947 
	C135.098709,160.320862 136.481918,173.165527 138.027695,185.990616 
	C139.193619,195.664261 140.559601,205.313812 141.872528,215.355057 
	C139.097275,224.503052 136.180145,233.238022 133.512482,242.048508 
	C131.767380,247.812057 129.875793,253.609375 128.993408,259.532135 
	C128.241592,264.578552 128.837250,269.825684 128.563660,275.160919 
	C123.178093,280.074341 117.949219,284.692047 112.973412,289.568024 
	C91.598228,310.514099 70.279816,331.518280 48.978401,352.539429 
	C40.688625,360.720123 32.594059,369.100342 24.234524,377.208160 
	C16.613493,384.599762 8.754243,391.745728 0.999998,399.000000 
z"/>
<path fill="#7D93D1" opacity="1.000000" stroke="none" 
	d="
M544.000000,1.000001 
	C552.991394,1.000000 561.982788,1.000000 571.000000,1.000000 
	C571.000000,144.354233 571.000000,287.708466 570.543335,431.531342 
	C563.179626,432.621918 556.271667,433.232941 549.365784,433.867859 
	C530.776062,435.576965 512.182922,437.251007 493.600891,439.040497 
	C488.368195,439.544403 483.169220,440.398834 477.554260,441.059509 
	C476.347626,440.984558 475.541443,440.942535 474.808563,440.569275 
	C473.537994,438.829193 472.194153,437.420288 470.722778,435.717773 
	C470.045624,435.131927 469.495972,434.839661 468.955688,434.582214 
	C468.965057,434.617035 468.920929,434.674072 469.183899,434.336639 
	C471.054688,424.882263 472.664062,415.765564 474.269928,406.648285 
	C478.829498,380.762360 483.471680,354.890625 487.922974,328.986115 
	C492.458801,302.589569 496.720367,276.145844 501.260742,249.750092 
	C505.716461,223.846573 510.446259,197.990250 514.919250,172.089630 
	C519.644714,144.727112 524.208923,117.336739 528.904236,89.584808 
	C529.264893,87.498726 529.564880,85.786354 529.915283,83.688972 
	C530.264954,81.540878 530.564209,79.777794 530.906677,77.644714 
	C530.992554,76.531723 531.035217,75.788712 531.302368,74.807098 
	C531.639160,73.716881 531.751343,72.865273 531.902344,71.643661 
	C531.986694,70.531006 532.032288,69.788353 532.302368,68.807091 
	C532.639038,67.716873 532.751282,66.865265 532.902344,65.643661 
	C532.986755,64.531021 533.032349,63.788364 533.302368,62.807091 
	C533.639038,61.716873 533.751282,60.865273 533.906738,59.686543 
	C533.992615,58.921513 534.035278,58.483612 534.302368,57.807091 
	C534.639038,56.716873 534.751282,55.865273 534.902344,54.643673 
	C534.986755,53.531021 535.032288,52.788364 535.302307,51.807091 
	C535.639038,50.716877 535.751282,49.865276 535.902405,48.643677 
	C535.986816,47.531025 536.032349,46.788368 536.302368,45.807098 
	C536.639038,44.716877 536.751282,43.865276 536.902405,42.643677 
	C536.986816,41.531025 537.032349,40.788368 537.302368,39.807091 
	C537.639038,38.716869 537.751282,37.865269 537.902344,36.643673 
	C537.986755,35.531021 538.032288,34.788364 538.302368,33.807091 
	C538.639038,32.716869 538.751282,31.865269 538.902344,30.643669 
	C538.986755,29.531019 539.032349,28.788364 539.302368,27.807100 
	C539.639099,26.716885 539.751343,25.865278 539.906799,24.686539 
	C539.992676,23.921509 540.035278,23.483610 540.302368,22.807098 
	C540.639038,21.716879 540.751282,20.865273 540.902344,19.643669 
	C540.986755,18.531019 541.032349,17.788364 541.302368,16.807098 
	C541.639038,15.716879 541.751282,14.865273 541.902344,13.643673 
	C541.986816,12.531022 542.032349,11.788365 542.302368,10.807091 
	C542.639038,9.716874 542.751282,8.865273 542.901733,7.641775 
	C542.990723,6.524336 543.041565,5.778795 543.326416,4.767809 
	C543.706909,3.334911 543.853455,2.167456 544.000000,1.000001 
z"/>
<path fill="#845DCC" opacity="1.000000" stroke="none" 
	d="
M141.836548,214.974091 
	C140.559601,205.313812 139.193619,195.664261 138.027695,185.990616 
	C136.481918,173.165527 135.098709,160.320862 133.634048,147.485947 
	C132.094635,133.995972 130.558182,120.505646 128.989624,107.019058 
	C127.516495,94.352798 125.989868,81.692780 124.511177,69.027168 
	C122.994148,56.033173 121.476768,43.039089 120.016335,30.038670 
	C118.962746,20.659941 118.002167,11.270762 117.000053,1.443122 
	C164.020889,1.000000 211.041794,1.000000 258.531372,1.433134 
	C259.043640,3.598397 259.087189,5.330526 258.962097,7.369022 
	C255.059082,10.040150 251.378311,12.495235 247.579041,14.750684 
	C239.885834,19.317772 232.774353,23.848043 227.972839,32.321995 
	C214.481888,56.131470 199.665909,79.185860 185.852432,102.818565 
	C178.135452,116.021080 168.068222,127.984375 164.229919,143.337265 
	C162.208542,151.422653 159.481659,159.335312 156.974426,167.294800 
	C151.964523,183.199249 146.886444,199.082245 141.836548,214.974091 
z"/>
<path fill="#CE8EBC" opacity="1.000000" stroke="none" 
	d="
M0.999998,399.428467 
	C8.754243,391.745728 16.613493,384.599762 24.234524,377.208160 
	C32.594059,369.100342 40.688625,360.720123 48.978401,352.539429 
	C70.279816,331.518280 91.598228,310.514099 112.973412,289.568024 
	C117.949219,284.692047 123.178093,280.074341 128.618347,275.626953 
	C128.964172,302.281921 128.936050,328.647980 129.080322,355.013092 
	C129.093033,357.334747 130.233444,359.650208 130.578079,362.173859 
	C122.842834,378.514984 115.476318,394.696625 107.863564,410.761627 
	C105.217812,416.344879 101.962616,421.639374 98.572830,427.042755 
	C65.773262,419.679840 33.386635,412.339905 1.000003,405.000000 
	C1.000000,403.285645 1.000000,401.571289 0.999998,399.428467 
z"/>
<path fill="#CE848B" opacity="1.000000" stroke="none" 
	d="
M95.000000,571.000000 
	C63.767048,571.000000 32.534100,571.000000 1.000000,571.000000 
	C1.000000,556.980530 1.000000,542.958923 1.363522,528.427368 
	C3.756781,526.868469 5.998456,526.095032 7.780897,524.724426 
	C17.362000,517.357117 26.806709,509.812836 36.340031,502.382965 
	C54.490082,488.237488 72.668213,474.128113 90.898346,460.382019 
	C97.657806,477.226105 104.425980,493.662964 111.015732,510.171112 
	C113.868805,517.318359 116.353889,524.612549 118.710052,532.025330 
	C117.856529,533.013550 117.249977,533.786926 116.748947,534.623596 
	C109.490990,546.744141 102.247192,558.873047 95.000000,571.000000 
z"/>
<path fill="#CE8EBC" opacity="1.000000" stroke="none" 
	d="
M259.130737,7.062655 
	C259.087189,5.330526 259.043640,3.598397 259.000031,1.433134 
	C289.020905,1.000000 319.041779,1.000000 349.390625,1.333628 
	C341.857880,22.777586 333.929413,43.863033 326.165131,65.008774 
	C322.289490,75.563927 318.714050,86.229309 314.768951,96.996841 
	C314.303802,97.436966 314.072601,97.725082 313.500793,98.047089 
	C312.612335,98.423546 311.863220,98.636086 311.545746,99.127495 
	C300.191986,116.702576 288.933075,134.339111 277.533203,151.884109 
	C272.884949,159.038025 267.943268,166.001282 263.096863,172.580826 
	C263.067474,160.756454 263.076294,149.402542 263.314880,137.813736 
	C263.647461,136.723633 263.750275,135.868454 263.894775,134.545456 
	C263.985992,114.067978 264.035553,94.058304 264.314880,73.813736 
	C264.647461,72.723656 264.750275,71.868469 264.894714,70.546516 
	C264.908447,64.721039 264.880524,59.362335 264.898376,53.536186 
	C264.962463,43.610962 265.043335,34.152550 264.946838,24.695940 
	C264.927246,22.776537 264.238678,20.863962 263.915588,18.633678 
	C264.029785,17.897169 264.086853,17.475224 264.358582,16.818558 
	C264.431580,15.410232 264.289917,14.236625 264.100586,12.673923 
	C264.052948,10.368919 264.052948,8.453012 264.052948,6.028274 
	C262.194519,6.418815 260.662628,6.740736 259.130737,7.062655 
z"/>
<path fill="#845DCC" opacity="1.000000" stroke="none" 
	d="
M90.834671,460.003723 
	C72.668213,474.128113 54.490082,488.237488 36.340031,502.382965 
	C26.806709,509.812836 17.362000,517.357117 7.780897,524.724426 
	C5.998456,526.095032 3.756781,526.868469 1.363522,527.958740 
	C1.000000,487.312439 1.000000,446.624878 1.000003,405.468628 
	C33.386635,412.339905 65.773262,419.679840 98.672546,427.331421 
	C99.129280,430.041779 99.073364,432.440399 98.646286,434.930298 
	C97.504707,436.148865 96.347092,437.176758 96.027756,438.419983 
	C94.186966,445.586365 92.544403,452.803680 90.834671,460.003723 
z"/>
<path fill="#CE848B" opacity="1.000000" stroke="none" 
	d="
M567.000000,571.000000 
	C543.645752,571.000000 520.291565,571.000000 496.292419,570.714355 
	C487.147339,564.441833 478.608063,558.508972 470.180542,552.421387 
	C468.534241,551.232239 467.321594,549.442688 465.930237,547.608459 
	C465.913574,546.860168 465.875580,546.433472 465.887817,545.555298 
	C465.191681,527.307190 464.445343,509.510559 463.726013,491.358948 
	C463.803284,489.021210 463.853516,487.038483 464.073669,484.871826 
	C464.125854,484.109680 464.008118,483.531433 463.944275,482.592407 
	C467.071411,476.911407 470.285767,471.665985 473.161072,466.240845 
	C474.702209,463.333008 475.659973,460.115967 477.121643,456.714233 
	C477.416992,453.632446 477.297272,450.856232 477.588959,448.123962 
	C477.776794,446.364166 478.568756,444.668823 479.375732,443.123138 
	C488.892487,456.415100 498.145386,469.513214 507.349854,482.645294 
	C526.052307,509.328247 544.743774,536.018921 563.386230,562.743835 
	C564.847046,564.838013 565.890991,567.222900 567.100830,569.854858 
	C567.048584,570.491394 567.024292,570.745667 567.000000,571.000000 
z"/>
<path fill="#845DCC" opacity="1.000000" stroke="none" 
	d="
M567.128723,569.472717 
	C565.890991,567.222900 564.847046,564.838013 563.386230,562.743835 
	C544.743774,536.018921 526.052307,509.328247 507.349854,482.645294 
	C498.145386,469.513214 488.892487,456.415100 479.250793,442.880371 
	C478.544983,442.003540 478.249878,441.548004 477.954773,441.092468 
	C483.169220,440.398834 488.368195,439.544403 493.600891,439.040497 
	C512.182922,437.251007 530.776062,435.576965 549.365784,433.867859 
	C556.271667,433.232941 563.179626,432.621918 570.543335,432.000000 
	C571.000000,477.166656 571.013550,522.333313 570.927063,567.499878 
	C570.924744,568.717224 572.533142,571.471313 568.418823,570.710388 
	C567.601257,570.104736 567.364990,569.788757 567.128723,569.472717 
z"/>
<path fill="#845DCC" opacity="1.000000" stroke="none" 
	d="
M315.002869,96.844833 
	C318.714050,86.229309 322.289490,75.563927 326.165131,65.008774 
	C333.929413,43.863033 341.857880,22.777586 349.859314,1.333628 
	C375.020905,1.000000 400.041779,1.000000 425.488342,1.346907 
	C425.565308,2.801168 425.216644,3.908523 424.531311,5.054239 
	C419.446777,8.911265 414.620178,12.636735 409.967346,16.567883 
	C400.121552,24.886492 390.399597,33.351509 380.565796,41.684475 
	C368.470947,51.933388 356.315552,62.110855 344.183228,72.315506 
	C334.458832,80.494804 324.729828,88.668594 315.002869,96.844833 
z"/>
<path fill="#CE8EBC" opacity="1.000000" stroke="none" 
	d="
M465.908936,547.930054 
	C467.321594,549.442688 468.534241,551.232239 470.180542,552.421387 
	C478.608063,558.508972 487.147339,564.441833 495.823792,570.714355 
	C449.979095,571.000000 403.958221,571.000000 357.307312,570.716309 
	C355.454590,569.605469 354.231842,568.778259 352.835907,567.666504 
	C349.449554,564.642517 346.236359,561.903198 343.487183,559.102417 
	C352.273468,559.027466 360.595795,559.020020 368.918091,558.997070 
	C371.634186,558.989624 374.562164,559.602234 377.033112,558.809204 
	C399.366058,551.641357 421.619049,544.224121 444.184418,536.811523 
	C444.987610,536.444946 445.501801,536.146790 446.265076,535.979126 
	C447.009674,536.354248 447.505219,536.598877 448.295105,537.023315 
	C453.642700,540.651672 458.695984,544.100281 464.002869,547.663452 
	C464.807281,547.828674 465.358093,547.879395 465.908936,547.930054 
z"/>
<path fill="#74CCAA" opacity="1.000000" stroke="none" 
	d="
M95.468658,571.000000 
	C102.247192,558.873047 109.490990,546.744141 116.748947,534.623596 
	C117.249977,533.786926 117.856529,533.013550 118.939827,532.096619 
	C119.465668,531.982544 119.928429,532.112183 120.146675,532.409058 
	C142.577515,541.084106 164.790115,549.462402 186.654968,558.095032 
	C183.858902,561.532532 181.410553,564.715698 178.688324,568.050171 
	C177.609619,569.134277 176.804810,570.067139 176.000000,571.000000 
	C149.312439,571.000000 122.624878,571.000000 95.468658,571.000000 
z"/>
<path fill="#CE8EBC" opacity="1.000000" stroke="none" 
	d="
M424.867981,5.015877 
	C425.216644,3.908523 425.565308,2.801168 425.956970,1.346907 
	C465.020905,1.000000 504.041779,1.000000 543.531372,1.000001 
	C543.853455,2.167456 543.706909,3.334911 542.849182,4.758810 
	C506.653320,5.010326 471.168610,4.997805 435.683929,5.007588 
	C429.423523,5.009314 429.218201,5.353100 428.967163,11.402514 
	C428.767609,16.210415 428.358856,21.014380 427.894958,25.805756 
	C425.640137,49.094837 423.288452,72.374596 421.061249,95.666267 
	C418.675873,120.611839 416.383606,145.566345 414.064606,170.518234 
	C412.068237,191.998810 410.075287,213.479752 408.142670,234.966110 
	C408.014313,236.393372 408.411011,237.867859 408.563507,239.320389 
	C413.358093,234.745514 416.821014,229.914169 420.379395,225.154205 
	C449.564728,186.113388 478.749542,147.072159 507.978058,108.063675 
	C515.527527,97.988136 523.230835,88.027908 530.863464,78.014709 
	C530.564209,79.777794 530.264954,81.540878 529.635132,83.858444 
	C528.501892,85.926994 527.699219,87.441063 526.638550,89.155472 
	C524.570801,91.264824 522.550415,93.015869 520.982544,95.106277 
	C491.686829,134.164230 462.410004,173.236420 433.211700,212.367203 
	C423.682190,225.138367 414.386658,238.084106 404.680603,250.966324 
	C403.972046,250.992325 403.566956,251.002029 403.113281,250.556458 
	C403.425964,243.817429 403.628326,237.519623 404.181458,231.252792 
	C405.358673,217.915665 406.748444,204.597427 407.991943,191.265945 
	C408.775665,182.863449 409.402618,174.446320 410.188568,166.044037 
	C411.420105,152.878189 412.759674,139.722427 413.989655,126.556435 
	C414.790009,117.989151 415.420197,109.405922 416.228149,100.839409 
	C417.438660,88.004372 418.738281,75.177734 420.000244,62.347557 
	C420.922363,52.972588 421.944550,43.606106 422.739716,34.220383 
	C423.563660,24.495251 424.167755,14.751492 424.867981,5.015877 
z"/>
<path fill="#CE848B" opacity="1.000000" stroke="none" 
	d="
M178.962189,567.898865 
	C181.410553,564.715698 183.858902,561.532532 187.000336,558.179077 
	C188.796448,558.394653 189.899445,558.780640 191.136841,559.478394 
	C193.219147,560.513000 195.167099,561.235718 197.533371,561.963562 
	C199.721512,561.647339 201.485931,561.081787 203.262009,561.042419 
	C221.155777,560.645508 239.052032,560.362793 256.946411,559.991028 
	C270.688782,559.705505 284.427948,559.178162 298.171265,559.050903 
	C313.120270,558.912415 328.072418,559.111816 343.023193,559.163879 
	C346.236359,561.903198 349.449554,564.642517 352.923035,567.917419 
	C353.122223,569.302002 353.061127,570.151001 353.000000,571.000000 
	C295.312439,571.000000 237.624878,571.000000 179.467987,570.612915 
	C178.986481,569.450195 178.974335,568.674561 178.962189,567.898865 
z"/>
<path fill="#CE848B" opacity="1.000000" stroke="none" 
	d="
M353.400024,571.000000 
	C353.061127,570.151001 353.122223,569.302002 353.096191,568.202026 
	C354.231842,568.778259 355.454590,569.605469 356.838684,570.716309 
	C355.933319,571.000000 354.866669,571.000000 353.400024,571.000000 
z"/>
<path fill="#CE848B" opacity="1.000000" stroke="none" 
	d="
M178.688324,568.050171 
	C178.974335,568.674561 178.986481,569.450195 178.999329,570.612915 
	C178.250000,571.000000 177.500000,571.000000 176.375000,571.000000 
	C176.804810,570.067139 177.609619,569.134277 178.688324,568.050171 
z"/>
<path fill="#CE848B" opacity="1.000000" stroke="none" 
	d="
M567.100830,569.854858 
	C567.364990,569.788757 567.601257,570.104736 567.918823,570.710388 
	C568.000000,571.000000 567.500000,571.000000 567.250000,571.000000 
	C567.024292,570.745667 567.048584,570.491394 567.100830,569.854858 
z"/>
<path fill="#F9FFFF" opacity="1.000000" stroke="none" 
	d="
M258.962097,7.369023 
	C260.662628,6.740736 262.194519,6.418815 264.052948,6.028274 
	C264.052948,8.453012 264.052948,10.368919 264.041626,12.891741 
	C264.030273,13.498655 263.992554,13.947541 263.594147,13.981685 
	C262.601227,15.390048 261.848022,16.718430 261.435883,18.145332 
	C254.613113,41.767517 247.752823,65.379356 241.064529,89.039764 
	C233.187363,116.905975 225.449203,144.811554 217.691055,172.711288 
	C215.445160,180.787888 213.337631,188.902985 211.010712,197.328522 
	C196.236908,226.435165 181.556290,255.182053 167.027130,284.005310 
	C159.510223,298.917511 152.261948,313.965088 144.576950,329.110840 
	C144.580933,333.680786 144.521408,338.158264 145.285492,342.490448 
	C148.517609,360.816101 151.994720,379.098480 155.287109,397.547180 
	C155.191956,397.697693 155.001831,397.998779 154.750473,397.946045 
	C154.331467,397.928040 154.163803,397.962799 153.998077,397.998779 
	C154.000000,398.000000 153.996567,397.998352 153.858551,397.681732 
	C146.097046,385.566254 138.473572,373.767426 130.850082,361.968567 
	C130.233444,359.650208 129.093033,357.334747 129.080322,355.013092 
	C128.936050,328.647980 128.964172,302.281921 128.891479,275.450073 
	C128.837250,269.825684 128.241592,264.578552 128.993408,259.532135 
	C129.875793,253.609375 131.767380,247.812057 133.512482,242.048508 
	C136.180145,233.238022 139.097275,224.503052 141.872528,215.355057 
	C146.886444,199.082245 151.964523,183.199249 156.974426,167.294800 
	C159.481659,159.335312 162.208542,151.422653 164.229919,143.337265 
	C168.068222,127.984375 178.135452,116.021080 185.852432,102.818565 
	C199.665909,79.185860 214.481888,56.131470 227.972839,32.321995 
	C232.774353,23.848043 239.885834,19.317772 247.579041,14.750684 
	C251.378311,12.495235 255.059082,10.040150 258.962097,7.369023 
z"/>
<path fill="#CE848B" opacity="1.000000" stroke="none" 
	d="
M404.984070,250.950012 
	C414.386658,238.084106 423.682190,225.138367 433.211700,212.367203 
	C462.410004,173.236420 491.686829,134.164230 520.982544,95.106277 
	C522.550415,93.015869 524.570801,91.264824 526.887573,89.275482 
	C527.877625,89.449608 528.360596,89.704071 528.843567,89.958527 
	C524.208923,117.336739 519.644714,144.727112 514.919250,172.089630 
	C510.446259,197.990250 505.716461,223.846573 501.260742,249.750092 
	C496.720367,276.145844 492.458801,302.589569 487.922974,328.986115 
	C483.471680,354.890625 478.829498,380.762360 474.269928,406.648285 
	C472.664062,415.765564 471.054688,424.882263 468.774078,434.403564 
	C457.376953,429.357513 446.680695,423.850861 435.917114,418.479126 
	C430.104370,415.578217 424.887085,412.184906 421.544556,406.287537 
	C419.776123,403.167450 417.261749,400.467743 415.063446,397.594086 
	C398.984955,376.575958 383.041718,355.451569 366.711456,334.630859 
	C363.039917,329.949768 360.964996,323.353851 353.946045,321.474365 
	C353.855103,320.876953 353.814941,320.638580 353.700623,320.115875 
	C354.047424,319.209595 354.468414,318.587677 355.217773,317.867065 
	C356.017548,316.808594 356.488922,315.848816 357.126831,314.599274 
	C361.571259,308.441345 365.767517,302.511566 370.143280,296.717346 
	C380.679565,282.765625 391.299866,268.877380 402.215210,254.880188 
	C403.357452,253.514557 404.170746,252.232269 404.984070,250.950012 
z"/>
<path fill="#F9FFFF" opacity="1.000000" stroke="none" 
	d="
M353.996857,321.833435 
	C360.964996,323.353851 363.039917,329.949768 366.711456,334.630859 
	C383.041718,355.451569 398.984955,376.575958 415.063446,397.594086 
	C417.261749,400.467743 419.776123,403.167450 421.544556,406.287537 
	C424.887085,412.184906 430.104370,415.578217 435.917114,418.479126 
	C446.680695,423.850861 457.376953,429.357513 468.511108,434.741028 
	C468.920929,434.674072 468.965057,434.617035 469.015686,434.922485 
	C469.660980,435.489075 470.255646,435.750214 470.850281,436.011353 
	C472.194153,437.420288 473.537994,438.829193 474.864319,440.658417 
	C474.846771,441.078735 475.043304,441.007629 474.673920,441.105469 
	C471.576782,442.145538 468.800079,442.968140 466.132965,444.058655 
	C462.354004,445.603729 458.655853,447.346375 454.537842,448.983887 
	C453.354797,449.176117 452.543488,449.348206 451.761230,449.607849 
	C412.131683,462.762024 372.504578,475.923584 332.567688,489.048126 
	C331.843536,489.030548 331.428894,489.049255 330.744080,488.789764 
	C318.756470,486.346497 307.034821,484.204285 295.322571,482.011597 
	C271.077087,477.472534 246.652618,473.699188 222.646729,468.125214 
	C199.409561,462.729706 176.601685,455.482697 153.611877,449.025269 
	C135.746902,444.007294 117.892151,438.952911 100.274368,433.671692 
	C102.617409,432.454010 104.853714,431.693298 106.797531,430.468384 
	C116.042007,424.643005 125.337433,418.882477 134.357101,412.721649 
	C141.106735,408.111328 147.464371,402.927063 153.996567,397.998352 
	C153.996567,397.998352 154.000000,398.000000 154.076416,398.171204 
	C154.435837,398.227875 154.718826,398.113312 155.001831,397.998779 
	C155.001831,397.998779 155.191956,397.697693 155.477142,397.458557 
	C156.178391,397.170105 156.594467,397.120819 157.218216,397.397522 
	C158.469772,398.139435 159.489487,398.836090 160.561249,398.928436 
	C172.924637,399.993622 185.287094,401.096802 197.666977,401.936798 
	C219.640884,403.427734 241.626617,404.744263 263.872070,406.410522 
	C265.372192,407.110840 266.606018,407.539062 267.843231,407.957367 
	C277.862946,411.345032 287.883240,414.730865 297.956665,418.490723 
	C298.047119,419.026337 298.036072,419.293549 298.128265,419.335876 
	C315.871368,427.482727 333.612671,435.633759 351.397827,443.687866 
	C352.319824,444.105377 353.691589,443.935516 354.730804,443.625885 
	C365.200592,440.506226 375.644623,437.300323 386.535706,434.072693 
	C398.271576,432.327942 409.567627,430.629089 422.274841,428.718048 
	C419.712341,426.177368 418.081818,424.572571 416.463989,422.955048 
	C384.891937,391.387726 353.330658,359.809631 321.718079,328.282959 
	C320.387482,326.955963 318.582886,326.104309 316.916840,324.689911 
	C316.370422,323.915710 315.979706,323.317352 315.431396,323.073944 
	C296.777832,314.792267 278.160797,306.424438 259.409912,298.368286 
	C254.134628,296.101776 248.460159,294.764374 242.984161,292.681854 
	C243.044922,291.940277 243.090302,291.517700 243.533920,291.073914 
	C256.989990,294.662109 270.047821,298.271515 283.484253,301.954041 
	C298.981537,306.356445 314.089508,310.723389 329.223267,314.999084 
	C336.789398,317.136719 344.402649,319.107788 352.148254,321.402374 
	C352.866913,321.711487 353.431885,321.772461 353.996857,321.833435 
z"/>
<path fill="#CE8EBC" opacity="1.000000" stroke="none" 
	d="
M530.906677,77.644714 
	C523.230835,88.027908 515.527527,97.988136 507.978058,108.063675 
	C478.749542,147.072159 449.564728,186.113388 420.379395,225.154205 
	C416.821014,229.914169 413.358093,234.745514 408.563507,239.320389 
	C408.411011,237.867859 408.014313,236.393372 408.142670,234.966110 
	C410.075287,213.479752 412.068237,191.998810 414.064606,170.518234 
	C416.383606,145.566345 418.675873,120.611839 421.061249,95.666267 
	C423.288452,72.374596 425.640137,49.094837 427.894958,25.805756 
	C428.358856,21.014380 428.767609,16.210415 428.967163,11.402514 
	C429.218201,5.353100 429.423523,5.009314 435.683929,5.007588 
	C471.168610,4.997805 506.653320,5.010326 542.615234,5.024254 
	C543.041565,5.778795 542.990723,6.524336 542.628784,7.738214 
	C542.237671,9.152937 542.157776,10.099323 542.077881,11.045708 
	C542.032349,11.788365 541.986816,12.531022 541.629395,13.740113 
	C541.237671,15.152935 541.157776,16.099321 541.077881,17.045710 
	C541.032349,17.788364 540.986755,18.531019 540.629395,19.740112 
	C540.237671,21.152935 540.157776,22.099323 540.077881,23.045712 
	C540.035278,23.483610 539.992676,23.921509 539.633789,24.782978 
	C539.237671,26.152935 539.157776,27.099321 539.077881,28.045710 
	C539.032349,28.788364 538.986755,29.531019 538.629395,30.740126 
	C538.237671,32.152954 538.157776,33.099335 538.077881,34.045712 
	C538.032288,34.788364 537.986755,35.531021 537.629395,36.740112 
	C537.237671,38.152931 537.157776,39.099319 537.077881,40.045715 
	C537.032349,40.788368 536.986816,41.531025 536.629456,42.740112 
	C536.237732,44.152931 536.157776,45.099323 536.077881,46.045715 
	C536.032349,46.788368 535.986816,47.531025 535.629456,48.740112 
	C535.237732,50.152935 535.157837,51.099323 535.077881,52.045708 
	C535.032288,52.788364 534.986755,53.531021 534.629395,54.740112 
	C534.237732,56.152935 534.157837,57.099327 534.077881,58.045715 
	C534.035278,58.483612 533.992615,58.921513 533.633850,59.782982 
	C533.237732,61.152935 533.157837,62.099323 533.077881,63.045715 
	C533.032349,63.788364 532.986755,64.531021 532.629395,65.740128 
	C532.237671,67.152946 532.157776,68.099327 532.077881,69.045700 
	C532.032288,69.788353 531.986694,70.531006 531.629395,71.740120 
	C531.237671,73.152954 531.157776,74.099327 531.077881,75.045700 
	C531.035217,75.788712 530.992554,76.531723 530.906677,77.644714 
z"/>
<path fill="#CE848B" opacity="1.000000" stroke="none" 
	d="
M477.554260,441.059540 
	C478.249878,441.548004 478.544983,442.003540 478.965088,442.701843 
	C478.568756,444.668823 477.776794,446.364166 477.588959,448.123962 
	C477.297272,450.856232 477.416992,453.632446 476.886414,456.638458 
	C476.130951,456.685364 475.947174,456.418030 475.907806,455.665497 
	C475.652100,450.499908 475.347717,445.753784 475.043304,441.007629 
	C475.043304,441.007629 474.846771,441.078735 474.791016,440.989624 
	C475.541443,440.942535 476.347626,440.984558 477.554260,441.059540 
z"/>
<path fill="#CE848B" opacity="1.000000" stroke="none" 
	d="
M528.904236,89.584808 
	C528.360596,89.704071 527.877625,89.449608 527.145569,89.075134 
	C527.699219,87.441063 528.501892,85.926994 529.584717,84.243454 
	C529.564880,85.786354 529.264893,87.498726 528.904236,89.584808 
z"/>
<path fill="#CE8EBC" opacity="1.000000" stroke="none" 
	d="
M542.302368,10.807092 
	C542.157776,10.099323 542.237671,9.152937 542.590576,8.110111 
	C542.751282,8.865273 542.639038,9.716874 542.302368,10.807092 
z"/>
<path fill="#CE8EBC" opacity="1.000000" stroke="none" 
	d="
M541.302368,16.807098 
	C541.157776,16.099321 541.237671,15.152935 541.590576,14.110107 
	C541.751282,14.865273 541.639038,15.716879 541.302368,16.807098 
z"/>
<path fill="#CE8EBC" opacity="1.000000" stroke="none" 
	d="
M540.302368,22.807098 
	C540.157776,22.099323 540.237671,21.152935 540.590576,20.110107 
	C540.751282,20.865273 540.639038,21.716879 540.302368,22.807098 
z"/>
<path fill="#CE8EBC" opacity="1.000000" stroke="none" 
	d="
M539.302368,27.807100 
	C539.157776,27.099321 539.237671,26.152935 539.590576,25.110109 
	C539.751343,25.865278 539.639099,26.716885 539.302368,27.807100 
z"/>
<path fill="#CE8EBC" opacity="1.000000" stroke="none" 
	d="
M538.302368,33.807091 
	C538.157776,33.099335 538.237671,32.152954 538.590576,31.110123 
	C538.751282,31.865269 538.639038,32.716869 538.302368,33.807091 
z"/>
<path fill="#CE8EBC" opacity="1.000000" stroke="none" 
	d="
M537.302368,39.807091 
	C537.157776,39.099319 537.237671,38.152931 537.590576,37.110107 
	C537.751282,37.865269 537.639038,38.716869 537.302368,39.807091 
z"/>
<path fill="#CE8EBC" opacity="1.000000" stroke="none" 
	d="
M536.302368,45.807095 
	C536.157776,45.099323 536.237732,44.152931 536.590576,43.110107 
	C536.751282,43.865276 536.639038,44.716877 536.302368,45.807095 
z"/>
<path fill="#CE8EBC" opacity="1.000000" stroke="none" 
	d="
M535.302368,51.807095 
	C535.157837,51.099323 535.237732,50.152935 535.590576,49.110107 
	C535.751282,49.865276 535.639038,50.716877 535.302368,51.807095 
z"/>
<path fill="#CE8EBC" opacity="1.000000" stroke="none" 
	d="
M534.302368,57.807095 
	C534.157837,57.099327 534.237732,56.152935 534.590576,55.110107 
	C534.751282,55.865273 534.639038,56.716873 534.302368,57.807095 
z"/>
<path fill="#CE8EBC" opacity="1.000000" stroke="none" 
	d="
M533.302368,62.807095 
	C533.157837,62.099323 533.237732,61.152935 533.590576,60.110107 
	C533.751282,60.865273 533.639038,61.716873 533.302368,62.807095 
z"/>
<path fill="#CE8EBC" opacity="1.000000" stroke="none" 
	d="
M532.302368,68.807091 
	C532.157776,68.099327 532.237671,67.152946 532.590576,66.110115 
	C532.751282,66.865265 532.639038,67.716873 532.302368,68.807091 
z"/>
<path fill="#CE8EBC" opacity="1.000000" stroke="none" 
	d="
M531.302368,74.807098 
	C531.157776,74.099327 531.237671,73.152954 531.590576,72.110123 
	C531.751343,72.865273 531.639160,73.716881 531.302368,74.807098 
z"/>
<path fill="#CE848B" opacity="1.000000" stroke="none" 
	d="
M470.722778,435.717773 
	C470.255646,435.750214 469.660980,435.489075 469.006317,434.887695 
	C469.495972,434.839661 470.045624,435.131927 470.722778,435.717773 
z"/>
<path fill="#C5CED4" opacity="1.000000" stroke="none" 
	d="
M153.858551,397.681732 
	C147.464371,402.927063 141.106735,408.111328 134.357101,412.721649 
	C125.337433,418.882477 116.042007,424.643005 106.797531,430.468384 
	C104.853714,431.693298 102.617409,432.454010 100.254517,433.971497 
	C99.981262,434.713959 99.969360,434.913605 99.720795,435.050415 
	C99.484116,434.987579 99.017448,434.839050 99.017448,434.839050 
	C99.073364,432.440399 99.129280,430.041779 99.085480,427.354431 
	C101.962616,421.639374 105.217812,416.344879 107.863564,410.761627 
	C115.476318,394.696625 122.842834,378.514984 130.578079,362.173859 
	C138.473572,373.767426 146.097046,385.566254 153.858551,397.681732 
z"/>
<path fill="#494A4A" opacity="1.000000" stroke="none" 
	d="
M98.646286,434.930298 
	C99.017448,434.839050 99.484116,434.987579 99.739540,435.412567 
	C103.290535,439.351593 106.442154,443.014954 109.906502,446.353851 
	C125.051399,460.950287 140.239487,475.502686 155.508148,489.969482 
	C164.139740,498.147766 173.005264,506.078979 181.651993,514.241577 
	C183.382065,515.874817 184.598465,518.052124 185.622726,519.991150 
	C167.681549,522.866516 150.153824,525.639282 132.668198,528.656067 
	C128.351334,529.400818 124.171333,530.938782 119.928421,532.112183 
	C119.928429,532.112183 119.465668,531.982544 119.235901,531.911255 
	C116.353889,524.612549 113.868805,517.318359 111.015732,510.171112 
	C104.425980,493.662964 97.657806,477.226105 90.898331,460.382019 
	C92.544403,452.803680 94.186966,445.586365 96.027756,438.419983 
	C96.347092,437.176758 97.504707,436.148865 98.646286,434.930298 
z"/>
<path fill="#74CCAA" opacity="1.000000" stroke="none" 
	d="
M401.886261,254.963531 
	C391.299866,268.877380 380.679565,282.765625 370.143280,296.717346 
	C365.767517,302.511566 361.571259,308.441345 356.810852,314.682098 
	C355.832947,315.699677 355.337616,316.344666 354.551208,316.769989 
	C353.507782,313.879303 352.542175,311.247986 352.035461,308.531128 
	C345.681488,274.461914 339.373077,240.384140 333.096191,206.300613 
	C328.320831,180.370193 323.681396,154.414429 318.792297,128.505646 
	C317.986206,124.233925 316.206116,120.145996 314.944092,115.722984 
	C315.063446,115.307854 315.114899,115.142883 315.340515,114.763710 
	C315.302704,113.689552 315.090759,112.829605 314.751770,111.582916 
	C314.416565,109.443947 314.114227,107.696632 314.022339,105.938324 
	C313.884521,103.300667 313.894348,100.655296 313.841370,98.013206 
	C314.072601,97.725082 314.303802,97.436966 314.768951,96.996841 
	C324.729828,88.668594 334.458832,80.494804 344.183228,72.315506 
	C356.315552,62.110855 368.470947,51.933388 380.565796,41.684475 
	C390.399597,33.351509 400.121552,24.886492 409.967346,16.567883 
	C414.620178,12.636735 419.446777,8.911265 424.531311,5.054239 
	C424.167755,14.751492 423.563660,24.495251 422.739716,34.220383 
	C421.944550,43.606106 420.922363,52.972588 420.000244,62.347557 
	C418.738281,75.177734 417.438660,88.004372 416.228149,100.839409 
	C415.420197,109.405922 414.790009,117.989151 413.989655,126.556435 
	C412.759674,139.722427 411.420105,152.878189 410.188568,166.044037 
	C409.402618,174.446320 408.775665,182.863449 407.991943,191.265945 
	C406.748444,204.597427 405.358673,217.915665 404.181458,231.252792 
	C403.628326,237.519623 403.425964,243.817429 402.941467,250.865402 
	C402.507599,252.740921 402.196930,253.852219 401.886261,254.963531 
z"/>
<path fill="#80868A" opacity="1.000000" stroke="none" 
	d="
M263.085114,138.048645 
	C263.076294,149.402542 263.067474,160.756454 263.044128,173.045563 
	C262.964203,183.987747 262.898804,193.994736 262.527740,204.140656 
	C261.851868,206.534775 261.481598,208.789978 261.068054,211.440125 
	C260.960999,212.890732 260.897186,213.946411 260.514221,215.127380 
	C259.496521,218.185608 258.798004,221.118546 258.058472,224.378510 
	C257.957275,225.140533 257.897125,225.575546 257.522644,226.156799 
	C256.172089,231.219147 255.135818,236.135254 254.058502,241.378387 
	C253.957275,242.140472 253.897125,242.575516 253.524017,243.155579 
	C252.507217,246.884186 251.803391,250.467758 251.058502,254.378387 
	C250.957291,255.140488 250.897125,255.575562 250.524033,256.155640 
	C249.507217,259.884247 248.803360,263.467834 248.058441,267.378448 
	C247.957260,268.140533 247.897110,268.575592 247.522629,269.156860 
	C246.172028,274.219208 245.135757,279.135284 244.065857,284.420105 
	C243.967224,285.525909 243.902206,286.262939 243.533539,287.126862 
	C236.150024,296.002747 229.177429,304.841278 221.967270,313.481598 
	C208.237442,329.934753 194.377380,346.279297 180.559860,362.659180 
	C175.814926,368.284058 171.035507,373.879822 165.325394,380.603333 
	C165.325394,378.215851 165.210098,377.423920 165.343231,376.676208 
	C166.654984,369.309479 167.918991,361.932434 169.370926,354.592834 
	C171.362198,344.526825 172.568192,334.359344 178.309967,325.247467 
	C184.953262,314.704926 190.604172,303.536896 196.681152,292.637726 
	C207.619919,273.018799 218.605286,253.425552 229.456955,233.758530 
	C232.211365,228.766541 235.703308,223.779861 236.827896,218.369125 
	C239.664764,204.720184 241.351151,190.831863 243.489716,177.038101 
	C246.341156,158.646164 249.190933,140.253937 252.029007,121.859924 
	C255.373764,100.181946 258.672455,78.496666 262.140961,56.838551 
	C262.311157,55.776081 263.915894,54.943348 264.852600,54.003632 
	C264.880524,59.362335 264.908447,64.721039 264.622070,70.644241 
	C264.233582,72.155373 264.159332,73.101997 264.085114,74.048630 
	C264.035553,94.058304 263.985992,114.067978 263.622131,134.643188 
	C263.233551,136.155350 263.159332,137.102005 263.085114,138.048645 
z"/>
<path fill="#F9FFFF" opacity="1.000000" stroke="none" 
	d="
M262.833374,204.001724 
	C262.898804,193.994736 262.964203,183.987747 263.082367,173.516022 
	C267.943268,166.001282 272.884949,159.038025 277.533203,151.884109 
	C288.933075,134.339111 300.191986,116.702576 311.545746,99.127495 
	C311.863220,98.636086 312.612335,98.423546 313.500793,98.047089 
	C313.894348,100.655296 313.884521,103.300667 314.022339,105.938324 
	C314.114227,107.696632 314.416565,109.443947 314.500427,111.744835 
	C314.639526,113.188301 314.902924,114.083107 315.166321,114.977921 
	C315.114899,115.142883 315.063446,115.307854 314.635712,116.003479 
	C313.842499,121.307465 313.238953,126.073112 313.041809,130.855530 
	C312.290375,149.081314 311.580627,167.309799 311.027191,185.542496 
	C310.528076,201.984421 310.253784,218.433182 309.548767,234.749374 
	C292.858948,229.388657 276.500671,224.157471 260.224274,218.591888 
	C260.481903,217.172333 260.657623,216.087219 260.833374,215.002090 
	C260.897186,213.946411 260.960999,212.890732 261.375763,211.223999 
	C262.095642,208.409210 262.464508,206.205460 262.833374,204.001724 
z"/>
<path fill="#494A4A" opacity="1.000000" stroke="none" 
	d="
M157.010529,397.071533 
	C156.594467,397.120819 156.178391,397.170105 155.572296,397.308044 
	C151.994720,379.098480 148.517609,360.816101 145.285492,342.490448 
	C144.521408,338.158264 144.580933,333.680786 144.887268,329.331421 
	C146.020844,330.744232 146.740814,332.055878 147.003540,333.453461 
	C149.368469,346.034180 151.629059,358.634521 153.995148,371.215027 
	C154.258469,372.615143 154.988083,373.927551 155.501434,375.280640 
	C158.089279,366.848785 159.397934,358.671173 161.080627,350.571320 
	C162.660431,342.966797 163.498505,334.919342 166.692047,328.003784 
	C172.044327,316.413544 179.042068,305.586334 185.287491,294.404572 
	C196.400345,274.508240 207.633240,254.676086 218.478500,234.634491 
	C223.165771,225.972565 228.650787,217.831451 230.153351,207.439865 
	C236.310638,164.857086 243.178619,122.377159 249.755295,79.854767 
	C250.516281,74.934464 251.091675,69.985458 251.753113,65.049767 
	C251.276505,64.928749 250.799881,64.807732 250.323257,64.686714 
	C249.678787,66.262833 248.891525,67.797340 248.417755,69.423195 
	C247.207489,73.576675 246.181793,77.783539 245.003510,81.946762 
	C234.579269,118.778038 224.152542,155.608643 213.652954,192.418457 
	C213.187714,194.049454 212.011627,195.477722 211.166656,197.000427 
	C213.337631,188.902985 215.445160,180.787888 217.691055,172.711288 
	C225.449203,144.811554 233.187363,116.905975 241.064529,89.039764 
	C247.752823,65.379356 254.613113,41.767517 261.435883,18.145332 
	C261.848022,16.718430 262.601227,15.390048 263.599426,14.370762 
	C264.050049,15.501556 264.096985,16.277418 264.143921,17.053280 
	C264.086853,17.475224 264.029785,17.897169 263.669373,18.939270 
	C261.256805,33.132248 259.105469,46.698685 257.047577,60.279285 
	C253.278320,85.154182 249.609222,110.044304 245.814087,134.915222 
	C242.244247,158.309769 238.588028,181.691238 234.917328,205.070221 
	C234.125153,210.115692 234.165771,215.650131 231.985214,220.048279 
	C226.690659,230.727310 220.225906,240.820465 214.393448,251.239685 
	C201.258545,274.704132 188.125351,298.170746 175.217194,321.760010 
	C172.308044,327.076355 169.503113,332.698944 168.087921,338.529510 
	C165.475952,349.290863 163.851105,360.297180 161.966370,371.227570 
	C160.834305,377.792969 159.988647,384.407745 158.896103,391.343170 
	C158.188797,393.481171 157.599655,395.276337 157.010529,397.071533 
z"/>
<path fill="#80868A" opacity="1.000000" stroke="none" 
	d="
M159.014267,391.000336 
	C159.988647,384.407745 160.834305,377.792969 161.966370,371.227570 
	C163.851105,360.297180 165.475952,349.290863 168.087921,338.529510 
	C169.503113,332.698944 172.308044,327.076355 175.217194,321.760010 
	C188.125351,298.170746 201.258545,274.704132 214.393448,251.239685 
	C220.225906,240.820465 226.690659,230.727310 231.985214,220.048279 
	C234.165771,215.650131 234.125153,210.115692 234.917328,205.070221 
	C238.588028,181.691238 242.244247,158.309769 245.814087,134.915222 
	C249.609222,110.044304 253.278320,85.154182 257.047577,60.279285 
	C259.105469,46.698685 261.256805,33.132248 263.612244,19.253832 
	C264.238678,20.863962 264.927246,22.776537 264.946838,24.695940 
	C265.043335,34.152550 264.962463,43.610962 264.898376,53.536186 
	C263.915894,54.943348 262.311157,55.776081 262.140961,56.838551 
	C258.672455,78.496666 255.373764,100.181946 252.029007,121.859924 
	C249.190933,140.253937 246.341156,158.646164 243.489716,177.038101 
	C241.351151,190.831863 239.664764,204.720184 236.827896,218.369125 
	C235.703308,223.779861 232.211365,228.766541 229.456955,233.758530 
	C218.605286,253.425552 207.619919,273.018799 196.681152,292.637726 
	C190.604172,303.536896 184.953262,314.704926 178.309967,325.247467 
	C172.568192,334.359344 171.362198,344.526825 169.370926,354.592834 
	C167.918991,361.932434 166.654984,369.309479 165.343231,376.676208 
	C165.210098,377.423920 165.325394,378.215851 165.325394,380.603333 
	C171.035507,373.879822 175.814926,368.284058 180.559860,362.659180 
	C194.377380,346.279297 208.237442,329.934753 221.967270,313.481598 
	C229.177429,304.841278 236.150024,296.002747 243.578964,287.478149 
	C243.663910,288.833405 243.399796,289.964264 243.135681,291.095093 
	C243.090302,291.517700 243.044922,291.940277 242.706314,292.864868 
	C240.451828,295.604706 238.449051,297.807709 236.536072,300.086121 
	C224.648682,314.244293 212.758530,328.400269 200.914230,342.594452 
	C189.811905,355.899475 178.825577,369.301910 167.648682,382.543701 
	C165.061844,385.608459 161.907486,388.194183 159.014267,391.000336 
z"/>
<path fill="#80868A" opacity="1.000000" stroke="none" 
	d="
M264.314880,73.813736 
	C264.159332,73.101997 264.233582,72.155373 264.580444,71.111015 
	C264.750275,71.868469 264.647461,72.723656 264.314880,73.813736 
z"/>
<path fill="#80868A" opacity="1.000000" stroke="none" 
	d="
M263.314880,137.813736 
	C263.159332,137.102005 263.233551,136.155350 263.580444,135.110992 
	C263.750275,135.868454 263.647461,136.723633 263.314880,137.813736 
z"/>
<path fill="#80868A" opacity="1.000000" stroke="none" 
	d="
M264.358582,16.818560 
	C264.096985,16.277418 264.050049,15.501556 263.997833,14.336618 
	C263.992554,13.947541 264.030273,13.498655 264.089264,13.280836 
	C264.289917,14.236625 264.431580,15.410232 264.358582,16.818560 
z"/>
<path fill="#74CCAA" opacity="1.000000" stroke="none" 
	d="
M463.749268,547.548889 
	C458.695984,544.100281 453.642700,540.651672 448.303101,536.629272 
	C452.224823,522.260193 456.384583,508.449646 460.726257,494.696564 
	C461.101471,493.507996 462.679626,492.699158 463.698975,491.713898 
	C464.445343,509.510559 465.191681,527.307190 465.573364,545.659546 
	C464.722198,546.659790 464.235748,547.104309 463.749268,547.548889 
z"/>
<path fill="#0F0F0F" opacity="1.000000" stroke="none" 
	d="
M475.859100,456.084930 
	C475.947174,456.418030 476.130951,456.685364 476.645721,456.962677 
	C475.659973,460.115967 474.702209,463.333008 473.161072,466.240845 
	C470.285767,471.665985 467.071411,476.911407 463.722961,482.627716 
	C463.447784,483.023804 463.021820,483.163208 462.674194,482.971466 
	C461.550781,479.504456 460.655762,476.252045 460.023621,472.949280 
	C458.625549,465.644531 457.359711,458.314484 456.021881,450.663635 
	C455.982788,449.891052 455.961700,449.449615 456.323669,449.017944 
	C458.245178,449.576477 459.789459,450.109619 461.321045,450.676910 
	C466.169617,452.472717 471.013428,454.281281 475.859100,456.084930 
z"/>
<path fill="#74CCAA" opacity="1.000000" stroke="none" 
	d="
M463.726013,491.358948 
	C462.679626,492.699158 461.101471,493.507996 460.726257,494.696564 
	C456.384583,508.449646 452.224823,522.260193 448.008789,536.449463 
	C447.505219,536.598877 447.009674,536.354248 446.281433,535.596619 
	C449.931519,522.557312 453.705414,509.995697 457.756378,497.524048 
	C459.164978,493.187500 461.259125,489.073578 463.254974,484.912170 
	C463.469788,484.966370 463.903748,485.055725 463.903748,485.055725 
	C463.853516,487.038483 463.803284,489.021210 463.726013,491.358948 
z"/>
<path fill="#CE848B" opacity="1.000000" stroke="none" 
	d="
M464.073669,484.871826 
	C463.903748,485.055725 463.469788,484.966370 463.247101,484.630249 
	C463.023560,483.917145 463.022675,483.540161 463.021790,483.163208 
	C463.021820,483.163208 463.447784,483.023804 463.669098,482.988525 
	C464.008118,483.531433 464.125854,484.109680 464.073669,484.871826 
z"/>
<path fill="#74CCAA" opacity="1.000000" stroke="none" 
	d="
M464.002869,547.663452 
	C464.235748,547.104309 464.722198,546.659790 465.523132,546.110962 
	C465.875580,546.433472 465.913574,546.860168 465.930237,547.608521 
	C465.358093,547.879395 464.807281,547.828674 464.002869,547.663452 
z"/>
<path fill="#80868A" opacity="1.000000" stroke="none" 
	d="
M462.674194,482.971466 
	C463.022675,483.540161 463.023560,483.917145 463.032288,484.576050 
	C461.259125,489.073578 459.164978,493.187500 457.756378,497.524048 
	C453.705414,509.995697 449.931519,522.557312 446.032379,535.466125 
	C445.501801,536.146790 444.987610,536.444946 444.018738,536.506714 
	C440.051178,535.143372 436.538239,534.016357 432.752991,532.638550 
	C428.653229,531.055481 424.825714,529.723206 421.018707,527.999268 
	C423.022034,523.083252 424.953705,518.535645 426.996582,514.038574 
	C435.722900,494.828552 444.474548,475.629974 453.241272,456.438324 
	C454.088135,454.584503 455.102997,452.807434 456.039917,450.994751 
	C457.359711,458.314484 458.625549,465.644531 460.023621,472.949280 
	C460.655762,476.252045 461.550781,479.504456 462.674194,482.971466 
z"/>
<path fill="#494A4A" opacity="1.000000" stroke="none" 
	d="
M433.025299,532.889282 
	C436.538239,534.016357 440.051178,535.143372 443.729797,536.575195 
	C421.619049,544.224121 399.366058,551.641357 377.033112,558.809204 
	C374.562164,559.602234 371.634186,558.989624 368.918091,558.997070 
	C360.595795,559.020020 352.273468,559.027466 343.487183,559.102417 
	C328.072418,559.111816 313.120270,558.912415 298.171265,559.050903 
	C284.427948,559.178162 270.688782,559.705505 256.946411,559.991028 
	C239.052032,560.362793 221.155777,560.645508 203.262009,561.042419 
	C201.485931,561.081787 199.721512,561.647339 197.469238,561.651611 
	C196.318771,560.589111 195.650742,559.843689 195.079987,558.773438 
	C194.912643,556.501465 194.788437,554.522766 194.360184,552.612305 
	C191.937195,541.803284 189.441330,531.010620 187.367401,520.127808 
	C188.843033,520.084351 189.921555,520.125488 190.893341,520.484985 
	C192.894241,531.039551 195.083176,541.260132 197.070190,551.519775 
	C197.884399,555.723755 200.063553,557.219482 204.348602,557.071350 
	C219.307907,556.554138 234.276474,556.267944 249.243637,556.022949 
	C273.371887,555.627991 297.501068,555.256104 321.631317,555.028198 
	C337.457703,554.878662 353.286804,555.026001 369.114410,554.968567 
	C371.255035,554.960754 373.508148,554.889221 375.516113,554.245300 
	C393.438293,548.497314 411.336700,542.672302 429.174103,536.667908 
	C430.708008,536.151550 431.753113,534.183167 433.025299,532.889282 
z"/>
<path fill="#35383A" opacity="1.000000" stroke="none" 
	d="
M186.970291,520.212341 
	C189.441330,531.010620 191.937195,541.803284 194.360184,552.612305 
	C194.788437,554.522766 194.912643,556.501465 194.682312,558.736938 
	C193.125732,559.072327 192.064102,559.119446 191.002457,559.166565 
	C189.899445,558.780640 188.796448,558.394653 187.348068,557.924683 
	C164.790115,549.462402 142.577515,541.084106 120.146667,532.409058 
	C124.171333,530.938782 128.351334,529.400818 132.668198,528.656067 
	C150.153824,525.639282 167.681549,522.866516 185.854553,520.041016 
	C186.515366,520.078308 186.970291,520.212341 186.970291,520.212341 
z"/>
<path fill="#CE848B" opacity="1.000000" stroke="none" 
	d="
M402.215210,254.880188 
	C402.196930,253.852219 402.507599,252.740921 402.990082,251.320663 
	C403.566956,251.002029 403.972046,250.992325 404.680603,250.966309 
	C404.170746,252.232269 403.357452,253.514557 402.215210,254.880188 
z"/>
<path fill="#CE848B" opacity="1.000000" stroke="none" 
	d="
M191.136841,559.478394 
	C192.064102,559.119446 193.125732,559.072327 194.585052,559.061768 
	C195.650742,559.843689 196.318771,560.589111 197.050919,561.646484 
	C195.167099,561.235718 193.219147,560.513000 191.136841,559.478394 
z"/>
<path fill="#494A4A" opacity="1.000000" stroke="none" 
	d="
M211.010712,197.328522 
	C212.011627,195.477722 213.187714,194.049454 213.652954,192.418457 
	C224.152542,155.608643 234.579269,118.778038 245.003510,81.946762 
	C246.181793,77.783539 247.207489,73.576675 248.417755,69.423195 
	C248.891525,67.797340 249.678787,66.262833 250.323257,64.686714 
	C250.799881,64.807732 251.276505,64.928749 251.753113,65.049767 
	C251.091675,69.985458 250.516281,74.934464 249.755295,79.854767 
	C243.178619,122.377159 236.310638,164.857086 230.153351,207.439865 
	C228.650787,217.831451 223.165771,225.972565 218.478500,234.634491 
	C207.633240,254.676086 196.400345,274.508240 185.287491,294.404572 
	C179.042068,305.586334 172.044327,316.413544 166.692047,328.003784 
	C163.498505,334.919342 162.660431,342.966797 161.080627,350.571320 
	C159.397934,358.671173 158.089279,366.848785 155.501434,375.280640 
	C154.988083,373.927551 154.258469,372.615143 153.995148,371.215027 
	C151.629059,358.634521 149.368469,346.034180 147.003540,333.453461 
	C146.740814,332.055878 146.020844,330.744232 145.202606,329.172119 
	C152.261948,313.965088 159.510223,298.917511 167.027130,284.005310 
	C181.556290,255.182053 196.236908,226.435165 211.010712,197.328522 
z"/>
<path fill="#C4CED3" opacity="1.000000" stroke="none" 
	d="
M154.750473,397.946045 
	C154.718826,398.113312 154.435837,398.227875 154.074493,398.170013 
	C154.163803,397.962799 154.331467,397.928040 154.750473,397.946045 
z"/>
<path fill="#7D93D1" opacity="1.000000" stroke="none" 
	d="
M309.880310,234.878922 
	C310.253784,218.433182 310.528076,201.984421 311.027191,185.542496 
	C311.580627,167.309799 312.290375,149.081314 313.041809,130.855530 
	C313.238953,126.073112 313.842499,121.307465 314.567810,116.253632 
	C316.206116,120.145996 317.986206,124.233925 318.792297,128.505646 
	C323.681396,154.414429 328.320831,180.370193 333.096191,206.300613 
	C339.373077,240.384140 345.681488,274.461914 352.035461,308.531128 
	C352.542175,311.247986 353.507782,313.879303 354.584412,317.012970 
	C354.908661,317.475586 354.889435,317.965790 354.889435,317.965790 
	C354.468414,318.587677 354.047424,319.209595 353.400238,320.231964 
	C352.780884,320.806335 352.387726,320.980286 351.994568,321.154205 
	C344.402649,319.107788 336.789398,317.136719 329.223267,314.999084 
	C314.089508,310.723389 298.981537,306.356445 283.469666,301.581970 
	C283.344849,300.190674 283.524658,299.208374 283.894623,298.303864 
	C292.544067,277.157104 301.214081,256.018799 309.880310,234.878922 
z"/>
<path fill="#CE848B" opacity="1.000000" stroke="none" 
	d="
M355.217773,317.867065 
	C354.889435,317.965790 354.908661,317.475586 354.875458,317.232605 
	C355.337616,316.344666 355.832947,315.699677 356.644287,314.971893 
	C356.488922,315.848816 356.017548,316.808594 355.217773,317.867065 
z"/>
<path fill="#CE848B" opacity="1.000000" stroke="none" 
	d="
M352.148254,321.402374 
	C352.387726,320.980286 352.780884,320.806335 353.474426,320.516327 
	C353.814941,320.638580 353.855103,320.876953 353.946045,321.474396 
	C353.431885,321.772461 352.866913,321.711487 352.148254,321.402374 
z"/>
<path fill="#494A4A" opacity="1.000000" stroke="none" 
	d="
M432.752991,532.638550 
	C431.753113,534.183167 430.708008,536.151550 429.174103,536.667908 
	C411.336700,542.672302 393.438293,548.497314 375.516113,554.245300 
	C373.508148,554.889221 371.255035,554.960754 369.114410,554.968567 
	C353.286804,555.026001 337.457703,554.878662 321.631317,555.028198 
	C297.501068,555.256104 273.371887,555.627991 249.243637,556.022949 
	C234.276474,556.267944 219.307907,556.554138 204.348602,557.071350 
	C200.063553,557.219482 197.884399,555.723755 197.070190,551.519775 
	C195.083176,541.260132 192.894241,531.039551 191.289047,520.401245 
	C192.544815,519.686584 193.271225,519.252075 194.055344,519.078857 
	C214.757202,514.507324 235.466415,509.969086 256.171387,505.411652 
	C271.939453,501.940887 287.699097,498.431854 303.470825,494.977875 
	C312.643494,492.969086 321.832581,491.035400 331.014282,489.067932 
	C331.428894,489.049255 331.843536,489.030548 332.637451,489.414429 
	C333.153168,490.099060 333.218018,490.544586 333.436066,490.640045 
	C354.342896,499.790009 375.245483,508.949951 396.186920,518.020203 
	C404.411682,521.582520 412.725159,524.940063 420.998230,528.390869 
	C424.825714,529.723206 428.653229,531.055481 432.752991,532.638550 
z"/>
<path fill="#C4CED3" opacity="1.000000" stroke="none" 
	d="
M158.896103,391.343170 
	C161.907486,388.194183 165.061844,385.608459 167.648682,382.543701 
	C178.825577,369.301910 189.811905,355.899475 200.914230,342.594452 
	C212.758530,328.400269 224.648682,314.244293 236.536072,300.086121 
	C238.449051,297.807709 240.451828,295.604706 242.690948,293.183838 
	C248.460159,294.764374 254.134628,296.101776 259.409912,298.368286 
	C278.160797,306.424438 296.777832,314.792267 315.431396,323.073944 
	C315.979706,323.317352 316.370422,323.915710 316.733948,324.973877 
	C313.736145,329.778839 310.741333,333.894653 307.958191,338.148895 
	C293.145355,360.791412 278.385559,383.468597 263.607422,406.133789 
	C241.626617,404.744263 219.640884,403.427734 197.666977,401.936798 
	C185.287094,401.096802 172.924637,399.993622 160.561249,398.928436 
	C159.489487,398.836090 158.469772,398.139435 157.218201,397.397522 
	C157.599655,395.276337 158.188797,393.481171 158.896103,391.343170 
z"/>
<path fill="#C4CED3" opacity="1.000000" stroke="none" 
	d="
M330.744080,488.789734 
	C321.832581,491.035400 312.643494,492.969086 303.470825,494.977875 
	C287.699097,498.431854 271.939453,501.940887 256.171387,505.411652 
	C235.466415,509.969086 214.757202,514.507324 194.055344,519.078857 
	C193.271225,519.252075 192.544815,519.686584 191.395782,520.082947 
	C189.921555,520.125488 188.843033,520.084351 187.367401,520.127808 
	C186.970291,520.212341 186.515366,520.078308 186.283539,520.028442 
	C184.598465,518.052124 183.382065,515.874817 181.651993,514.241577 
	C173.005264,506.078979 164.139740,498.147766 155.508148,489.969482 
	C140.239487,475.502686 125.051399,460.950287 109.906502,446.353851 
	C106.442154,443.014954 103.290535,439.351593 99.976212,435.475403 
	C99.969360,434.913605 99.981262,434.713959 100.013008,434.214508 
	C117.892151,438.952911 135.746902,444.007294 153.611877,449.025269 
	C176.601685,455.482697 199.409561,462.729706 222.646729,468.125214 
	C246.652618,473.699188 271.077087,477.472534 295.322571,482.011597 
	C307.034821,484.204285 318.756470,486.346497 330.744080,488.789734 
z"/>
<path fill="#80868A" opacity="1.000000" stroke="none" 
	d="
M263.872101,406.410522 
	C278.385559,383.468597 293.145355,360.791412 307.958191,338.148895 
	C310.741333,333.894653 313.736145,329.778839 316.816223,325.315186 
	C318.582886,326.104309 320.387482,326.955963 321.718079,328.282959 
	C353.330658,359.809631 384.891937,391.387726 416.463989,422.955048 
	C418.081818,424.572571 419.712341,426.177368 422.274841,428.718048 
	C409.567627,430.629089 398.271576,432.327942 386.505859,433.825439 
	C386.036194,433.624115 386.089050,433.128815 386.391907,433.058411 
	C386.821960,432.534729 387.202850,431.937805 387.039429,431.649017 
	C382.679596,423.945129 378.307678,416.247284 373.837982,408.606812 
	C371.772278,405.075775 370.269073,400.527008 367.165985,398.426056 
	C359.197235,393.030853 350.524994,388.655090 342.001678,384.120453 
	C340.775482,383.468109 338.343201,383.560791 337.271851,384.370667 
	C324.047638,394.367462 310.962524,404.548767 297.909393,414.769073 
	C297.526276,415.069031 297.886139,416.317841 297.929077,417.372437 
	C297.958588,417.620575 297.903381,418.117279 297.903381,418.117279 
	C287.883240,414.730865 277.862946,411.345032 267.843231,407.957367 
	C266.606018,407.539062 265.372192,407.110840 263.872101,406.410522 
z"/>
<path fill="#C4CED3" opacity="1.000000" stroke="none" 
	d="
M421.018707,527.999268 
	C412.725159,524.940063 404.411682,521.582520 396.186920,518.020203 
	C375.245483,508.949951 354.342896,499.790009 333.436066,490.640045 
	C333.218018,490.544586 333.153168,490.099060 332.946991,489.450684 
	C372.504578,475.923584 412.131683,462.762024 451.761230,449.607849 
	C452.543488,449.348206 453.354797,449.176117 454.792297,448.972168 
	C455.601562,448.990112 455.771118,448.999146 455.940643,449.008179 
	C455.961700,449.449615 455.982788,449.891052 456.021851,450.663605 
	C455.102997,452.807434 454.088135,454.584503 453.241272,456.438324 
	C444.474548,475.629974 435.722900,494.828552 426.996582,514.038574 
	C424.953705,518.535645 423.022034,523.083252 421.018707,527.999268 
z"/>
<path fill="#C4CED3" opacity="1.000000" stroke="none" 
	d="
M309.548767,234.749374 
	C301.214081,256.018799 292.544067,277.157104 283.894623,298.303864 
	C283.524658,299.208374 283.344849,300.190674 283.091034,301.508820 
	C270.047821,298.271515 256.989990,294.662109 243.533920,291.073914 
	C243.399796,289.964264 243.663910,288.833405 243.882599,287.351288 
	C243.902206,286.262939 243.967224,285.525909 244.333588,284.155396 
	C245.702271,278.684845 246.769623,273.847717 247.836975,269.010620 
	C247.897110,268.575592 247.957260,268.140533 248.325195,267.115723 
	C249.367661,263.020844 250.102310,259.515717 250.836975,256.010620 
	C250.897125,255.575562 250.957291,255.140488 251.325256,254.115662 
	C252.367691,250.020798 253.102325,246.515671 253.836975,243.010559 
	C253.897125,242.575516 253.957275,242.140472 254.326202,241.113678 
	C255.702301,235.684799 256.769653,230.847672 257.836975,226.010559 
	C257.897125,225.575546 257.957275,225.140533 258.315491,224.139343 
	C259.123169,222.024200 259.632782,220.475250 260.142395,218.926300 
	C276.500671,224.157471 292.858948,229.388657 309.548767,234.749374 
z"/>
<path fill="#494A4A" opacity="1.000000" stroke="none" 
	d="
M297.956665,418.490723 
	C297.903381,418.117279 297.958588,417.620575 298.359070,417.337280 
	C299.920471,417.113251 301.104828,417.044128 302.238861,417.250854 
	C321.940063,420.841156 341.643799,424.418884 361.327362,428.104156 
	C369.604706,429.653961 377.836517,431.446625 386.089050,433.128815 
	C386.089050,433.128815 386.036194,433.624115 386.066040,433.871368 
	C375.644623,437.300323 365.200592,440.506226 354.730804,443.625885 
	C353.691589,443.935516 352.319824,444.105377 351.397827,443.687866 
	C333.612671,435.633759 315.871368,427.482727 298.128265,419.335876 
	C298.036072,419.293549 298.047119,419.026337 297.956665,418.490723 
z"/>
<path fill="#494A4A" opacity="1.000000" stroke="none" 
	d="
M456.323669,449.017944 
	C455.771118,448.999146 455.601562,448.990112 455.177612,448.992828 
	C458.655853,447.346375 462.354004,445.603729 466.132965,444.058655 
	C468.800079,442.968140 471.576782,442.145538 474.673920,441.105469 
	C475.347717,445.753784 475.652100,450.499908 475.907806,455.665497 
	C471.013428,454.281281 466.169617,452.472717 461.321045,450.676910 
	C459.789459,450.109619 458.245178,449.576477 456.323669,449.017944 
z"/>
<path fill="#7D93D1" opacity="1.000000" stroke="none" 
	d="
M315.340515,114.763710 
	C314.902924,114.083107 314.639526,113.188301 314.627472,112.131577 
	C315.090759,112.829605 315.302704,113.689552 315.340515,114.763710 
z"/>
<path fill="#80868A" opacity="1.000000" stroke="none" 
	d="
M257.522644,226.156799 
	C256.769653,230.847672 255.702301,235.684799 254.367249,240.786621 
	C255.135818,236.135254 256.172089,231.219147 257.522644,226.156799 
z"/>
<path fill="#80868A" opacity="1.000000" stroke="none" 
	d="
M247.522644,269.156860 
	C246.769623,273.847717 245.702271,278.684845 244.367218,283.786682 
	C245.135757,279.135284 246.172028,274.219208 247.522644,269.156860 
z"/>
<path fill="#80868A" opacity="1.000000" stroke="none" 
	d="
M250.524017,256.155640 
	C250.102310,259.515717 249.367661,263.020844 248.366241,266.788666 
	C248.803360,263.467834 249.507217,259.884247 250.524017,256.155640 
z"/>
<path fill="#80868A" opacity="1.000000" stroke="none" 
	d="
M253.524017,243.155579 
	C253.102325,246.515671 252.367691,250.020798 251.366302,253.788635 
	C251.803391,250.467758 252.507217,246.884186 253.524017,243.155579 
z"/>
<path fill="#80868A" opacity="1.000000" stroke="none" 
	d="
M260.224274,218.591888 
	C259.632782,220.475250 259.123169,222.024200 258.356506,223.812317 
	C258.798004,221.118546 259.496521,218.185608 260.514221,215.127380 
	C260.657623,216.087219 260.481903,217.172333 260.224274,218.591888 
z"/>
<path fill="#80868A" opacity="1.000000" stroke="none" 
	d="
M262.527740,204.140656 
	C262.464508,206.205460 262.095642,208.409210 261.419067,210.829071 
	C261.481598,208.789978 261.851868,206.534775 262.527740,204.140656 
z"/>
<path fill="#0F0F0F" opacity="1.000000" stroke="none" 
	d="
M386.391907,433.058411 
	C377.836517,431.446625 369.604706,429.653961 361.327362,428.104156 
	C341.643799,424.418884 321.940063,420.841156 302.238861,417.250854 
	C301.104828,417.044128 299.920471,417.113251 298.329559,417.089111 
	C297.886139,416.317841 297.526276,415.069031 297.909393,414.769073 
	C310.962524,404.548767 324.047638,394.367462 337.271851,384.370667 
	C338.343201,383.560791 340.775482,383.468109 342.001678,384.120453 
	C350.524994,388.655090 359.197235,393.030853 367.165985,398.426056 
	C370.269073,400.527008 371.772278,405.075775 373.837982,408.606812 
	C378.307678,416.247284 382.679596,423.945129 387.039429,431.649017 
	C387.202850,431.937805 386.821960,432.534729 386.391907,433.058411 
z"/>
</svg>